<?xml version="1.0" encoding="UTF-8"?>
<svg version="1.1" xmlns="http://www.w3.org/2000/svg" width="500" height="500">
<path d="M0 0 C1.06328136 -0.00445784 2.12656272 -0.00891569 3.22206473 -0.01350862 C4.95754077 -0.01323207 4.95754077 -0.01323207 6.72807693 -0.01294994 C7.96598677 -0.01662663 9.2038966 -0.02030332 10.47931886 -0.02409142 C13.90850511 -0.03319293 17.3376436 -0.0378224 20.76683736 -0.04048073 C24.46854976 -0.04439469 28.17024845 -0.05397244 31.87195206 -0.0626936 C40.80991844 -0.08243031 49.7478859 -0.09252202 58.68586862 -0.10142139 C62.90143874 -0.10581007 67.11700761 -0.11117548 71.33257675 -0.11641026 C85.35839833 -0.133422 99.38421913 -0.14791326 113.41004944 -0.155159 C117.0475731 -0.15706871 120.68509675 -0.15898906 124.32262039 -0.16094494 C125.2266433 -0.16142868 126.13066621 -0.16191242 127.06208375 -0.16241082 C141.68656405 -0.17070021 156.31096227 -0.1960189 170.93540677 -0.22852562 C185.97163027 -0.26167326 201.00781218 -0.27961482 216.04407239 -0.28280324 C224.47749628 -0.28496154 232.91080057 -0.29360968 241.34418869 -0.31926441 C248.53101067 -0.34107721 255.717684 -0.34897036 262.90453532 -0.33929763 C266.56455481 -0.33478291 270.22426831 -0.33647158 273.88424492 -0.35605907 C308.98591816 -0.53327493 337.76228181 7.58440447 363.76353836 32.35297108 C380.84553547 49.41101027 394.63472396 75.94547344 394.68291569 100.58552647 C394.68737353 101.64880783 394.69183138 102.71208919 394.69642431 103.8075912 C394.69614776 105.54306724 394.69614776 105.54306724 394.69586563 107.3136034 C394.70138066 109.17046815 394.70138066 109.17046815 394.70700711 111.06484532 C394.71610862 114.49403157 394.72073809 117.92317007 394.72339642 121.35236382 C394.72731038 125.05407623 394.73688813 128.75577491 394.74560928 132.45747852 C394.76534599 141.3954449 394.77543771 150.33341237 394.78433707 159.27139509 C394.78872575 163.48696521 394.79409117 167.70253408 394.79932594 171.91810322 C394.81633769 185.94392479 394.83082894 199.9697456 394.83807468 213.9955759 C394.83998439 217.63309957 394.84190475 221.27062322 394.84386063 224.90814686 C394.84434437 225.81216977 394.84482811 226.71619268 394.84532651 227.64761022 C394.8536159 242.27209052 394.87893458 256.89648873 394.9114413 271.52093324 C394.94458895 286.55715674 394.96253051 301.59333865 394.96571892 316.62959886 C394.96787722 325.06302274 394.97652536 333.49632704 395.0021801 341.92971516 C395.02399289 349.11653713 395.03188605 356.30321046 395.02221332 363.49006179 C395.01769859 367.15008128 395.01938727 370.80979478 395.03897476 374.46977139 C395.21619062 409.57144463 387.09851122 438.34780827 362.32994461 464.34906483 C345.27190542 481.43106194 318.73744225 495.22025043 294.09738922 495.26844215 C293.03410786 495.2729 291.9708265 495.27735784 290.87532449 495.28195077 C289.13984845 495.28167423 289.13984845 495.28167423 287.36931229 495.2813921 C286.13140245 495.28506879 284.89349262 495.28874547 283.61807036 495.29253358 C280.18888411 495.30163509 276.75974562 495.30626455 273.33055186 495.30892289 C269.62883946 495.31283684 265.92714077 495.3224146 262.22543716 495.33113575 C253.28747078 495.35087246 244.34950332 495.36096418 235.4115206 495.36986354 C231.19595048 495.37425222 226.98038161 495.37961763 222.76481247 495.38485241 C208.7389909 495.40186415 194.71317009 495.41635541 180.68733978 495.42360115 C177.04981612 495.42551086 173.41229247 495.42743122 169.77476883 495.42938709 C168.87074592 495.42987083 167.96672301 495.43035457 167.03530547 495.43085297 C152.41082517 495.43914236 137.78642695 495.46446105 123.16198245 495.49696777 C108.12575895 495.53011542 93.08957704 495.54805697 78.05331683 495.55124539 C69.61989294 495.55340369 61.18658865 495.56205183 52.75320053 495.58770657 C45.56637855 495.60951936 38.37970522 495.61741252 31.1928539 495.60773978 C27.53283441 495.60322506 23.87312091 495.60491374 20.2131443 495.62450123 C-14.88852894 495.80171709 -43.66489259 487.68403768 -69.66614914 462.91547108 C-86.74814625 445.85743189 -100.53733474 419.32296872 -100.58552647 394.68291569 C-100.58998431 393.61963433 -100.59444215 392.55635296 -100.59903508 391.46085095 C-100.59885072 390.30386693 -100.59866636 389.1468829 -100.59847641 387.95483875 C-100.6021531 386.71692892 -100.60582979 385.47901908 -100.60961789 384.20359683 C-100.6187194 380.77441058 -100.62334887 377.34527209 -100.6260072 373.91607833 C-100.62992116 370.21436593 -100.63949891 366.51266724 -100.64822006 362.81096363 C-100.66795677 353.87299725 -100.67804849 344.93502979 -100.68694785 335.99704707 C-100.69133653 331.78147695 -100.69670195 327.56590807 -100.70193672 323.35033894 C-100.71894846 309.32451736 -100.73343972 295.29869655 -100.74068546 281.27286625 C-100.74259517 277.63534259 -100.74451553 273.99781893 -100.74647141 270.3602953 C-100.74695515 269.45627239 -100.74743889 268.55224948 -100.74793728 267.62083194 C-100.75622668 252.99635164 -100.78154536 238.37195342 -100.81405208 223.74750891 C-100.84719973 208.71128541 -100.86514129 193.67510351 -100.8683297 178.6388433 C-100.870488 170.20541941 -100.87913614 161.77211512 -100.90479088 153.338727 C-100.92660367 146.15190502 -100.93449683 138.96523169 -100.9248241 131.77838036 C-100.92030937 128.11836088 -100.92199805 124.45864737 -100.94158554 120.79867077 C-101.1188014 85.69699752 -93.001122 56.92063388 -68.23255539 30.91937733 C-51.1745162 13.83738022 -24.64005303 0.04819173 0 0 Z " fill="#ADDE9C" transform="translate(103.4513053894043,2.865778923034668)"/>
<path d="M0 0 C1.06328136 -0.00445784 2.12656272 -0.00891569 3.22206473 -0.01350862 C4.95754077 -0.01323207 4.95754077 -0.01323207 6.72807693 -0.01294994 C7.96598677 -0.01662663 9.2038966 -0.02030332 10.47931886 -0.02409142 C13.90850511 -0.03319293 17.3376436 -0.0378224 20.76683736 -0.04048073 C24.46854976 -0.04439469 28.17024845 -0.05397244 31.87195206 -0.0626936 C40.80991844 -0.08243031 49.7478859 -0.09252202 58.68586862 -0.10142139 C62.90143874 -0.10581007 67.11700761 -0.11117548 71.33257675 -0.11641026 C85.35839833 -0.133422 99.38421913 -0.14791326 113.41004944 -0.155159 C117.0475731 -0.15706871 120.68509675 -0.15898906 124.32262039 -0.16094494 C125.2266433 -0.16142868 126.13066621 -0.16191242 127.06208375 -0.16241082 C141.68656405 -0.17070021 156.31096227 -0.1960189 170.93540677 -0.22852562 C185.97163027 -0.26167326 201.00781218 -0.27961482 216.04407239 -0.28280324 C224.47749628 -0.28496154 232.91080057 -0.29360968 241.34418869 -0.31926441 C248.53101067 -0.34107721 255.717684 -0.34897036 262.90453532 -0.33929763 C266.56455481 -0.33478291 270.22426831 -0.33647158 273.88424492 -0.35605907 C308.98591816 -0.53327493 337.76228181 7.58440447 363.76353836 32.35297108 C380.84553547 49.41101027 394.63472396 75.94547344 394.68291569 100.58552647 C394.68737353 101.64880783 394.69183138 102.71208919 394.69642431 103.8075912 C394.69614776 105.54306724 394.69614776 105.54306724 394.69586563 107.3136034 C394.70138066 109.17046815 394.70138066 109.17046815 394.70700711 111.06484532 C394.71610862 114.49403157 394.72073809 117.92317007 394.72339642 121.35236382 C394.72731038 125.05407623 394.73688813 128.75577491 394.74560928 132.45747852 C394.76534599 141.3954449 394.77543771 150.33341237 394.78433707 159.27139509 C394.78872575 163.48696521 394.79409117 167.70253408 394.79932594 171.91810322 C394.81633769 185.94392479 394.83082894 199.9697456 394.83807468 213.9955759 C394.83998439 217.63309957 394.84190475 221.27062322 394.84386063 224.90814686 C394.84434437 225.81216977 394.84482811 226.71619268 394.84532651 227.64761022 C394.8536159 242.27209052 394.87893458 256.89648873 394.9114413 271.52093324 C394.94458895 286.55715674 394.96253051 301.59333865 394.96571892 316.62959886 C394.96787722 325.06302274 394.97652536 333.49632704 395.0021801 341.92971516 C395.02399289 349.11653713 395.03188605 356.30321046 395.02221332 363.49006179 C395.01769859 367.15008128 395.01938727 370.80979478 395.03897476 374.46977139 C395.21619062 409.57144463 387.09851122 438.34780827 362.32994461 464.34906483 C345.27190542 481.43106194 318.73744225 495.22025043 294.09738922 495.26844215 C293.03410786 495.2729 291.9708265 495.27735784 290.87532449 495.28195077 C289.13984845 495.28167423 289.13984845 495.28167423 287.36931229 495.2813921 C286.13140245 495.28506879 284.89349262 495.28874547 283.61807036 495.29253358 C280.18888411 495.30163509 276.75974562 495.30626455 273.33055186 495.30892289 C269.62883946 495.31283684 265.92714077 495.3224146 262.22543716 495.33113575 C253.28747078 495.35087246 244.34950332 495.36096418 235.4115206 495.36986354 C231.19595048 495.37425222 226.98038161 495.37961763 222.76481247 495.38485241 C208.7389909 495.40186415 194.71317009 495.41635541 180.68733978 495.42360115 C177.04981612 495.42551086 173.41229247 495.42743122 169.77476883 495.42938709 C168.87074592 495.42987083 167.96672301 495.43035457 167.03530547 495.43085297 C152.41082517 495.43914236 137.78642695 495.46446105 123.16198245 495.49696777 C108.12575895 495.53011542 93.08957704 495.54805697 78.05331683 495.55124539 C69.61989294 495.55340369 61.18658865 495.56205183 52.75320053 495.58770657 C45.56637855 495.60951936 38.37970522 495.61741252 31.1928539 495.60773978 C27.53283441 495.60322506 23.87312091 495.60491374 20.2131443 495.62450123 C-14.88852894 495.80171709 -43.66489259 487.68403768 -69.66614914 462.91547108 C-86.74814625 445.85743189 -100.53733474 419.32296872 -100.58552647 394.68291569 C-100.58998431 393.61963433 -100.59444215 392.55635296 -100.59903508 391.46085095 C-100.59885072 390.30386693 -100.59866636 389.1468829 -100.59847641 387.95483875 C-100.6021531 386.71692892 -100.60582979 385.47901908 -100.60961789 384.20359683 C-100.6187194 380.77441058 -100.62334887 377.34527209 -100.6260072 373.91607833 C-100.62992116 370.21436593 -100.63949891 366.51266724 -100.64822006 362.81096363 C-100.66795677 353.87299725 -100.67804849 344.93502979 -100.68694785 335.99704707 C-100.69133653 331.78147695 -100.69670195 327.56590807 -100.70193672 323.35033894 C-100.71894846 309.32451736 -100.73343972 295.29869655 -100.74068546 281.27286625 C-100.74259517 277.63534259 -100.74451553 273.99781893 -100.74647141 270.3602953 C-100.74695515 269.45627239 -100.74743889 268.55224948 -100.74793728 267.62083194 C-100.75622668 252.99635164 -100.78154536 238.37195342 -100.81405208 223.74750891 C-100.84719973 208.71128541 -100.86514129 193.67510351 -100.8683297 178.6388433 C-100.870488 170.20541941 -100.87913614 161.77211512 -100.90479088 153.338727 C-100.92660367 146.15190502 -100.93449683 138.96523169 -100.9248241 131.77838036 C-100.92030937 128.11836088 -100.92199805 124.45864737 -100.94158554 120.79867077 C-101.1188014 85.69699752 -93.001122 56.92063388 -68.23255539 30.91937733 C-51.1745162 13.83738022 -24.64005303 0.04819173 0 0 Z M-17.45130539 13.13422108 C-18.23850967 13.35678452 -19.02571396 13.57934795 -19.83677292 13.80865574 C-35.54087377 18.69766015 -48.39373712 27.14104504 -60.45130539 38.13422108 C-61.1280632 38.72847889 -61.80482101 39.3227367 -62.50208664 39.93500233 C-80.21159964 56.34174655 -89.28212468 81.80397111 -90.63532507 105.33403969 C-90.70822164 108.53197894 -90.72301689 111.72417894 -90.7120018 114.92291737 C-90.71582735 116.12964934 -90.71965289 117.33638131 -90.72359437 118.57968092 C-90.73204611 121.88453276 -90.73172224 125.18923988 -90.72741377 128.49409509 C-90.72492557 132.07562055 -90.73398631 135.65712097 -90.74145126 139.23863697 C-90.75414147 146.23721049 -90.75599918 153.23574554 -90.753651 160.23432863 C-90.75186172 165.92657514 -90.75363049 171.61881005 -90.75787544 177.31105518 C-90.75847063 178.12384777 -90.75906582 178.93664036 -90.75967905 179.77406302 C-90.7608909 181.42567631 -90.76210503 183.07728959 -90.76332142 184.72890288 C-90.77417454 200.18502119 -90.77204473 215.64111764 -90.76593658 231.09723717 C-90.76076632 245.21304379 -90.77202972 259.32878143 -90.7910348 273.44457442 C-90.81044056 287.97027115 -90.81866459 302.49593529 -90.81491154 317.02164507 C-90.81300405 325.16415874 -90.81544311 333.30661367 -90.82962608 341.44911671 C-90.84157565 348.37893397 -90.84290467 355.30865631 -90.83083592 362.23847497 C-90.82497294 365.76838284 -90.82377565 369.29811739 -90.83583832 372.82801342 C-91.11099452 392.21031023 -91.11099452 392.21031023 -87.45130539 411.13422108 C-87.11749092 412.26697845 -87.11749092 412.26697845 -86.77693272 413.42261982 C-78.13664677 440.69841956 -60.55270422 461.44026476 -35.45130539 475.13422108 C-31.51719312 477.0218893 -27.56354109 478.67856242 -23.45130539 480.13422108 C-22.49482101 480.50547108 -21.53833664 480.87672108 -20.55286789 481.25922108 C-17.06474338 482.24327635 -14.05927354 482.19390095 -10.45130539 482.13422108 C-10.39859209 469.09051909 -10.38494386 456.04766206 -10.4324913 443.00391102 C-10.45242091 436.88549423 -10.43854087 430.76937477 -10.37731552 424.65124989 C-10.35218212 421.33053575 -10.36321101 418.01071235 -10.3851738 414.69000721 C-10.38758213 413.16089723 -10.37429931 411.63167687 -10.34482956 410.10284901 C-10.26404994 405.66419581 -10.25934412 401.44783416 -11.45130539 397.13422108 C-13.62066298 395.05394469 -15.48630327 394.10818597 -18.27088547 393.01068592 C-21.27566669 391.80285202 -22.32707954 390.13390532 -23.82630539 387.32172108 C-24.26716476 386.53152576 -24.70802414 385.74133045 -25.16224289 384.92718983 C-28.1260169 378.50567948 -30.04917026 372.39313445 -31.11536789 365.42718983 C-31.24150467 364.60873081 -31.36764145 363.7902718 -31.49760056 362.94701099 C-32.84306686 353.45801279 -32.91333377 344.01351795 -32.82630539 334.44672108 C-32.81932632 333.07033466 -32.81932632 333.07033466 -32.81220627 331.66614246 C-32.72712748 317.30964241 -32.12001717 303.27296641 -29.45130539 289.13422108 C-29.1373381 287.44619373 -29.1373381 287.44619373 -28.81702805 285.72406483 C-23.90667077 259.95250819 -16.73941298 225.14723519 4.54869461 207.13422108 C7.29822789 207.33061631 9.45232529 208.52853264 11.98619461 209.63422108 C23.25517013 214.37905288 35.28039721 212.32827569 46.40025711 208.03265858 C47.10924149 207.7361742 47.81822586 207.43968983 48.54869461 207.13422108 C71.72111021 228.90224785 81.22200179 264.54972454 84.22447586 295.22015858 C84.45244195 298.19443848 84.45244195 298.19443848 85.54869461 301.13422108 C88.76685492 301.45603711 91.98502409 301.77776124 95.20323563 302.09906483 C97.94352485 302.37299061 100.68356525 302.64925334 103.42345047 302.92718983 C109.55204246 303.5471682 115.67970014 304.15795055 121.81822586 304.67328358 C122.72540359 304.75272205 123.63258133 304.83216053 124.5672493 304.91400623 C126.21678041 305.05679674 127.86719134 305.18988574 129.51842117 305.31146717 C135.45609559 305.83998544 138.87102775 307.22354493 142.79869461 311.69672108 C145.53406843 315.50670604 146.00765696 318.04502187 145.96275711 322.67718983 C145.23273636 327.00910538 142.76469496 330.22517087 139.54869461 333.13422108 C136.15254393 334.72657307 133.4050825 335.39260833 129.66661453 335.45306873 C128.72601685 335.47293842 127.78541916 335.49280811 126.81631851 335.51327991 C125.81405731 335.52483112 124.81179611 335.53638233 123.77916336 335.54828358 C122.2249543 335.5773328 122.2249543 335.5773328 120.63934708 335.60696888 C117.33837932 335.66662464 114.03737642 335.71309438 110.73619461 335.75922108 C108.49464316 335.79741371 106.25310619 335.83646619 104.01158524 335.87640858 C98.52408375 335.97231466 93.0364947 336.05740307 87.54869461 336.13422108 C87.49173416 337.38976795 87.43477371 338.64531483 87.37608719 339.93890858 C86.54623765 357.41539798 86.54623765 357.41539798 85.23619461 365.13422108 C85.1064827 365.91764881 84.97677078 366.70107655 84.8431282 367.50824451 C83.33272358 376.08791072 81.2081223 385.98705706 74.54869461 392.13422108 C70.4118502 394.67997148 66.15137475 396.59999437 61.54869461 398.13422108 C59.88369282 408.20896751 58.68534752 418.29542072 57.61119461 428.44672108 C57.48387955 429.63721058 57.48387955 429.63721058 57.35399246 430.85175037 C56.09736893 442.60567046 54.91177683 454.36585479 53.79869461 466.13422108 C53.70142578 467.15366306 53.70142578 467.15366306 53.60219193 468.19369984 C53.42009552 470.1111092 53.24211439 472.02890805 53.06431961 473.94672108 C52.9139827 475.56513905 52.9139827 475.56513905 52.76060867 477.21625233 C52.56936597 479.84958509 52.54869461 482.49395306 52.54869461 485.13422108 C117.88869461 485.13422108 183.22869461 485.13422108 250.54869461 485.13422108 C249.96442263 478.12295729 249.37675435 471.12883513 248.64635086 464.13422108 C248.56435944 463.33928745 248.48236801 462.54435383 248.397892 461.72533131 C248.13671077 459.19485127 247.87396816 456.6645362 247.61119461 454.13422108 C247.25003235 450.64078154 246.88960932 447.14726584 246.52916336 443.65375233 C246.4421315 442.81133488 246.35509964 441.96891743 246.26543045 441.10097218 C245.63673103 435.00932442 245.0239127 428.91624321 244.42369461 422.82172108 C243.54425523 413.91703455 242.55803687 405.02502312 241.54869461 396.13422108 C242.58883965 396.37771793 242.58883965 396.37771793 243.64999771 396.62613392 C246.80108485 397.17846035 249.7287344 397.26133044 252.927845 397.26361561 C254.1958847 397.26676777 255.46392441 397.26991993 256.77038956 397.27316761 C258.14571035 397.2713778 259.52103082 397.26932683 260.89635086 397.26703358 C262.31451814 397.26770769 263.73268531 397.26867861 265.1508522 397.26993275 C268.11721781 397.27140418 271.08355323 397.26927267 274.04991531 397.26459217 C277.84848077 397.25888999 281.64697564 397.26218048 285.44553852 397.26816463 C288.37177435 397.27178076 291.29799348 397.2706269 294.22422981 397.26803684 C295.6248405 397.26737076 297.02545272 397.26818486 298.42606163 397.2705164 C300.38368704 397.2730607 302.34131777 397.26849409 304.29893875 397.26361561 C305.96842323 397.26242222 305.96842323 397.26242222 307.67163467 397.26120472 C310.14522421 397.15202889 312.19259997 396.85436537 314.54869461 396.13422108 C314.51840164 396.76022205 314.48810867 397.38622303 314.45689774 398.03119373 C313.20183642 425.38670315 313.449016 452.75718512 313.54869461 480.13422108 C320.20130466 478.77886337 325.73673767 476.95893145 331.73619461 473.75922108 C332.55845535 473.32222889 333.38071609 472.8852367 334.22789383 472.43500233 C342.28033798 467.99011576 348.98777032 462.537825 355.54869461 456.13422108 C356.36467117 455.35820545 357.18064774 454.58218983 358.02135086 453.78265858 C369.33868669 442.16592232 377.6136759 426.82609997 381.54869461 411.13422108 C381.80039791 410.16050714 382.05210121 409.18679319 382.31143188 408.18357277 C385.22420051 395.09073771 384.96545238 382.02449239 384.91155052 368.66732466 C384.90052803 365.1056668 384.90708501 361.54403203 384.91133499 357.98236561 C384.91693424 351.02781862 384.90671979 344.07338305 384.89104703 337.11885502 C384.87341168 329.00674499 384.87208577 320.89465583 384.87143144 312.78252963 C384.86974789 298.30444 384.85398635 283.82640074 384.82994461 269.34833241 C384.80666957 255.32163544 384.79251621 241.2949704 384.78892899 227.26825428 C384.78859483 225.97110424 384.78859483 225.97110424 384.78825393 224.64774915 C384.78781131 222.90546103 384.78736928 221.16317292 384.78692786 219.42088481 C384.7867083 218.56128603 384.78648873 217.70168726 384.78626251 216.81604004 C384.78604653 215.95851275 384.78583054 215.10098547 384.78560801 214.2174725 C384.78190206 200.81463822 384.77054483 187.41180902 384.75813212 174.00898036 C384.75370854 169.16369628 384.75026549 164.31841268 384.74750999 159.47312739 C384.74306613 151.78966675 384.73525144 144.10622499 384.72073558 136.42277624 C384.71415884 132.91556251 384.70906757 129.40836522 384.70827484 125.90114498 C384.70651941 122.09166172 384.69861122 118.28223863 384.68913651 114.47276783 C384.69000299 113.37567515 384.69086947 112.27858247 384.69176221 111.14824456 C384.6561075 101.56268548 384.28669256 92.16403675 381.48619461 82.94672108 C381.27067947 82.23113026 381.05516434 81.51553944 380.83311844 80.77826405 C372.79255951 55.43646788 354.85123538 33.86441851 331.54869461 21.13422108 C321.97327354 16.38907792 312.0955851 12.96234876 301.54869461 11.13422108 C300.58110214 10.96164406 299.61350967 10.78906704 298.61659622 10.61126041 C293.27837902 9.86295054 287.91236503 9.9896356 282.53258133 9.99377918 C281.32436879 9.99080806 280.11615625 9.98783694 278.87133121 9.98477578 C275.52982265 9.97761835 272.18836553 9.97491825 268.84685302 9.97417831 C265.23792434 9.97232136 261.62900666 9.96477073 258.02008438 9.9580431 C250.13338116 9.94448432 242.24668303 9.93843867 234.35997009 9.93403244 C229.43017088 9.93126541 224.50037361 9.92702718 219.57057571 9.92252827 C205.90671283 9.91033796 192.24285151 9.90003873 178.57898331 9.89665318 C177.70512204 9.89643361 176.83126078 9.89621404 175.93091887 9.89598782 C175.05502791 9.89576955 174.17913695 9.89555127 173.27670383 9.89532638 C171.50197029 9.89488292 169.72723675 9.89443636 167.9525032 9.8939867 C167.07218378 9.89376527 166.19186436 9.89354384 165.2848686 9.8933157 C151.03349933 9.8893711 136.7821813 9.87192634 122.53083181 9.84862718 C107.87992497 9.82486928 93.22904378 9.81244928 78.57811737 9.81128526 C70.36000908 9.8103709 62.14196754 9.80467924 53.92387772 9.78646564 C46.92329227 9.77100452 39.92279419 9.76597938 32.9221949 9.77420375 C29.35575283 9.77808933 25.78948637 9.77728426 22.22306633 9.7631464 C2.17539066 9.55686534 2.17539066 9.55686534 -17.45130539 13.13422108 Z " fill="#66A06C" transform="translate(103.4513053894043,2.865778923034668)"/>
<path d="M0 0 C1.87824791 0.80496339 3.75207667 1.62022437 5.625 2.4375 C16.89397552 7.1823318 28.9192026 5.13155461 40.0390625 0.8359375 C40.74804688 0.53945312 41.45703125 0.24296875 42.1875 -0.0625 C49.39775186 6.92925938 55.17274311 13.88220319 59.75 22.875 C60.22397217 23.79958008 60.69794434 24.72416016 61.1862793 25.67675781 C71.98012831 47.17927535 77.5326691 70.99951505 79.1875 94.9375 C80.57582031 95.01097656 80.57582031 95.01097656 81.9921875 95.0859375 C91.20921252 95.5911566 100.41852504 96.20550965 109.625 96.875 C110.71345215 96.94960449 111.8019043 97.02420898 112.92333984 97.10107422 C130.14250504 98.38679292 130.14250504 98.38679292 134.66015625 101.8125 C135.18480469 102.51375 135.70945313 103.215 136.25 103.9375 C137.07177734 104.989375 137.07177734 104.989375 137.91015625 106.0625 C140.74593999 110.22511833 141.01241963 114.00369498 140.1875 118.9375 C137.41140047 124.50891083 133.97731797 127.6440429 128.1875 129.9375 C124.56058825 130.34038045 120.96565352 130.28707685 117.3203125 130.23046875 C116.28558807 130.22622391 115.25086365 130.22197906 114.18478394 130.21760559 C110.89375319 130.20086996 107.60334434 130.16322649 104.3125 130.125 C102.0755297 130.10994658 99.83854977 130.09625933 97.6015625 130.08398438 C92.12999767 130.05098322 86.65879328 130.00083468 81.1875 129.9375 C81.20200195 131.19304687 81.21650391 132.44859375 81.23144531 133.7421875 C81.37271175 151.03976578 81.37271175 151.03976578 79.9375 158.9375 C79.80255127 159.72165283 79.66760254 160.50580566 79.52856445 161.3137207 C77.82050001 170.67662352 75.37068012 180.22509913 68.1875 186.9375 C64.06089776 189.57698037 60.15579512 191.9375 55.1875 191.9375 C54.8575 193.2575 54.5275 194.5775 54.1875 195.9375 C54.1875 194.9475 54.1875 193.9575 54.1875 192.9375 C53.39538116 192.94194122 52.60326233 192.94638245 51.78713989 192.95095825 C44.28502858 192.99120152 36.78297036 193.02156849 29.28077888 193.04112434 C25.4247689 193.0515165 21.56884886 193.06559113 17.71289062 193.08837891 C13.98461917 193.11027165 10.2564337 193.12210289 6.52810287 193.12725449 C5.11290002 193.13092099 3.69770133 193.13807986 2.28253555 193.14896011 C-19.48485447 193.30950456 -19.48485447 193.30950456 -26.9296875 187.0703125 C-35.00145939 177.92677007 -37.16186027 166.61895039 -38.8125 154.9375 C-38.98378418 154.05755371 -39.15506836 153.17760742 -39.33154297 152.27099609 C-39.92440144 148.16191511 -39.99314059 144.15400025 -40.015625 140.0078125 C-40.02268463 139.14905518 -40.02974426 138.29029785 -40.03701782 137.40551758 C-40.15321896 119.07917436 -40.22385708 101.01075519 -36.8125 82.9375 C-36.60318848 81.81214844 -36.39387695 80.68679688 -36.17822266 79.52734375 C-33.61653023 66.08253764 -20.59680928 -0.7102348 0 0 Z " fill="#E58484" transform="translate(109.8125,209.0625)"/>
<path d="M0 0 C3.6570174 2.52830833 6.28173076 5.3815993 9 8.875 C13.21822867 14.14425889 17.70235379 19.08665896 22.33081055 23.99731445 C25.26281107 27.11156629 28.09007921 30.26070819 30.8125 33.5625 C35.29098164 38.74109167 40.24423508 41.87312053 47 43 C48.69257245 43.07700286 50.38773999 43.10805067 52.08203125 43.09765625 C53.01337891 43.09443359 53.94472656 43.09121094 54.90429688 43.08789062 C55.86400391 43.07951172 56.82371094 43.07113281 57.8125 43.0625 C58.79154297 43.05798828 59.77058594 43.05347656 60.77929688 43.04882812 C63.18626111 43.03708684 65.59309857 43.02066419 68 43 C68.27457031 42.11957031 68.54914063 41.23914063 68.83203125 40.33203125 C71.80902973 31.83912254 76.74924175 23.50805338 83 17 C86.59683336 15.80105555 87.10428569 16.25638712 90.375 17.875 C101.65634967 23.41875602 113.60047079 21.14799246 125.0625 17.375 C126.37659011 16.92124581 127.68971889 16.46463869 129 16 C162.66522154 52.58036642 164.7198256 112.98273454 163.09436035 159.89624023 C162.75681714 167.4217509 161.7292206 174.67712669 160 182 C159.74476563 183.15242187 159.48953125 184.30484375 159.2265625 185.4921875 C157.107787 193.28694873 152.90437312 198.56296143 147 204 C146.34 204.33 145.68 204.66 145 205 C144.53045739 208.04581269 144.53045739 208.04581269 144.375 211.5625 C144.30023438 212.76003906 144.22546875 213.95757812 144.1484375 215.19140625 C144.09945312 216.11824219 144.05046875 217.04507813 144 218 C143.67 218 143.34 218 143 218 C143 214.04 143 210.08 143 206 C141.68 206.33 140.36 206.66 139 207 C136.93970726 207.1015217 134.87647351 207.14833949 132.8137207 207.16113281 C131.56174393 207.17074036 130.30976715 207.1803479 129.01985168 207.19024658 C127.65516341 207.19509627 126.29047299 207.19937468 124.92578125 207.203125 C124.2345989 207.20595238 123.54341656 207.20877975 122.83128929 207.21169281 C119.17048131 207.22666575 115.50971252 207.23590595 111.84887695 207.24023438 C108.08763338 207.24570292 104.32675476 207.26970169 100.56562519 207.29820633 C97.65633642 207.31693871 94.74713349 207.322044 91.83778954 207.32357025 C90.45245567 207.32657564 89.06712254 207.33453179 87.68184853 207.34775543 C78.93967566 207.42522148 70.94026796 207.35814133 63.51171875 202.30859375 C51.91170457 190.4105064 49.88881034 172.29312074 49.796875 156.26953125 C49.78999664 155.4487912 49.78311829 154.62805115 49.77603149 153.78244019 C49.7588738 151.12574809 49.75256757 148.46924469 49.75 145.8125 C49.74832825 144.90448639 49.74665649 143.99647278 49.74493408 143.0609436 C49.74270195 122.76703036 51.50732419 103.00778663 55 83 C53.84371094 82.90976562 52.68742187 82.81953125 51.49609375 82.7265625 C46.84801827 82.13954483 43.18333738 80.53439516 39.0625 78.375 C38.36302246 78.0145459 37.66354492 77.6540918 36.94287109 77.28271484 C24.51137922 70.71627788 14.83582574 60.93438293 6.2578125 49.890625 C3.96768757 46.95863115 1.62222246 44.07926157 -0.73608398 41.20214844 C-19.43692276 18.37150755 -19.43692276 18.37150755 -19.34765625 9.546875 C-18.77336399 5.33970028 -17.15372024 3.80330688 -14 1 C-9.73033346 -1.72784251 -4.74691291 -1.41431994 0 0 Z " fill="#82AEE0" transform="translate(275,193)"/>
<path d="M0 0 C24.09 0 48.18 0 73 0 C73 34.76707714 73 34.76707714 72.62768555 47.08251953 C72.5610448 49.29838661 72.50182967 51.51437228 72.44335938 53.73046875 C72.15452931 64.16578413 71.62573433 74.57979594 71 85 C62.24691275 88.73554415 53.27693622 89.29766251 43.86328125 89.1953125 C42.35510078 89.19106766 42.35510078 89.19106766 40.81645203 89.18673706 C37.64833979 89.17566487 34.48052479 89.15058557 31.3125 89.125 C29.1464885 89.11495341 26.9804725 89.10583052 24.81445312 89.09765625 C19.54286969 89.07576825 14.27145609 89.04242292 9 89 C6.88188759 74.40216583 5.21687075 59.81865869 3.9375 45.125 C3.61686449 41.48144399 3.29260027 37.83823478 2.96484375 34.1953125 C2.88688568 33.32304016 2.80892761 32.45076782 2.72860718 31.55206299 C2.1150762 24.85435641 1.30141402 18.19898834 0.36938477 11.53857422 C-0.03014631 7.71120909 0 3.84816176 0 0 Z " fill="#325379" transform="translate(345,399)"/>
<path d="M0 0 C7.68228432 -0.02561304 15.3645574 -0.04297584 23.046875 -0.05493164 C25.65365002 -0.05992238 28.2604223 -0.06671732 30.8671875 -0.07543945 C58.64456489 -0.16597155 58.64456489 -0.16597155 72 1 C72.28622064 10.06694349 71.5075797 18.90607385 70.46157837 27.89404297 C69.98928291 31.95385919 69.53809777 36.01602483 69.0859375 40.078125 C68.9476931 41.31423523 68.9476931 41.31423523 68.80665588 42.57531738 C67.71852684 52.3905261 66.8251191 62.22326097 65.9519043 72.05957031 C65.84015869 73.29803711 65.72841309 74.53650391 65.61328125 75.8125 C65.47079956 77.43091797 65.47079956 77.43091797 65.32543945 79.08203125 C65.02551914 81.77118925 64.54789325 84.35268299 64 87 C56.13463093 87.05075471 48.26930418 87.0857567 40.40380859 87.10986328 C37.72860034 87.11878335 35.05360611 87.13355637 32.37841797 87.15087891 C28.53089692 87.17516701 24.68352128 87.18649245 20.8359375 87.1953125 C19.64197357 87.20563507 18.44800964 87.21595764 17.21786499 87.22659302 C16.09715607 87.22674408 14.97644714 87.22689514 13.82177734 87.22705078 C12.84026703 87.231492 11.85875671 87.23593323 10.84750366 87.24050903 C7.65381591 86.97076021 4.99310725 86.11930105 2 85 C0.70560417 56.65517648 -0.37225473 28.37726441 0 0 Z " fill="#904B4B" transform="translate(92,401)"/>
<path d="M0 0 C3.6570174 2.52830833 6.28173076 5.3815993 9 8.875 C13.21822867 14.14425889 17.70235379 19.08665896 22.33081055 23.99731445 C25.26281107 27.11156629 28.09007921 30.26070819 30.8125 33.5625 C35.22368974 38.6632802 40.27404736 42.04191466 47 43 C56.90171118 43.59801275 66.4400394 42.82193665 76.25 41.5 C100.38917067 38.29726917 100.38917067 38.29726917 107.3515625 43.51171875 C113.02720534 48.63593658 115.96261703 53.61953967 116.375 61.375 C116.18755345 67.93562941 113.57296067 72.80334626 108.875 77.3125 C104.6448734 80.62654823 100.1869263 81.8615903 95 83 C94.175 83.20496094 93.35 83.40992188 92.5 83.62109375 C81.62813469 85.91240257 66.80144243 87.13323091 56 84 C55.67 84.66 55.34 85.32 55 86 C55 85.01 55 84.02 55 83 C53.84371094 82.90976562 52.68742187 82.81953125 51.49609375 82.7265625 C46.84801827 82.13954483 43.18333738 80.53439516 39.0625 78.375 C38.36302246 78.0145459 37.66354492 77.6540918 36.94287109 77.28271484 C24.51137922 70.71627788 14.83582574 60.93438293 6.2578125 49.890625 C3.96768757 46.95863115 1.62222246 44.07926157 -0.73608398 41.20214844 C-19.43692276 18.37150755 -19.43692276 18.37150755 -19.34765625 9.546875 C-18.77336399 5.33970028 -17.15372024 3.80330688 -14 1 C-9.73033346 -1.72784251 -4.74691291 -1.41431994 0 0 Z " fill="#88B8EF" transform="translate(275,193)"/>
<path d="M0 0 C8.59163252 7.1238953 14.9414037 15.10925073 16.75 26.3125 C17.68455603 37.72634001 15.99419885 48.42662169 8.50390625 57.4375 C-0.80616724 67.39036253 -9.78325917 72.10207793 -23.5 72.5625 C-35.00976042 72.40654119 -43.68743704 67.73804457 -52 60 C-60.30616032 51.21204384 -62.78016181 40.9030815 -62.49609375 29.0390625 C-61.52289853 18.25667735 -56.10935347 9.35555276 -48.375 1.94921875 C-34.27523606 -8.91070972 -14.84908389 -10.39146417 0 0 Z " fill="#FEF3B9" transform="translate(404.25,142.6875)"/>
<path d="M0 0 C8.59163252 7.1238953 14.9414037 15.10925073 16.75 26.3125 C17.68455603 37.72634001 15.99419885 48.42662169 8.50390625 57.4375 C-0.80616724 67.39036253 -9.78325917 72.10207793 -23.5 72.5625 C-35.00976042 72.40654119 -43.68743704 67.73804457 -52 60 C-60.30616032 51.21204384 -62.78016181 40.9030815 -62.49609375 29.0390625 C-61.52289853 18.25667735 -56.10935347 9.35555276 -48.375 1.94921875 C-34.27523606 -8.91070972 -14.84908389 -10.39146417 0 0 Z " fill="#FEF3B9" transform="translate(153.25,142.6875)"/>
<path d="M0 0 C6.89494796 4.81477722 12.34787035 10.68878192 15.3046875 18.609375 C15.66304688 19.54007813 16.02140625 20.47078125 16.390625 21.4296875 C17.38013586 24.87183211 17.53784513 27.72312756 17.4921875 31.296875 C17.48574219 32.41449219 17.47929687 33.53210938 17.47265625 34.68359375 C17.3046875 37.609375 17.3046875 37.609375 16.3046875 40.609375 C15.6446875 40.609375 14.9846875 40.609375 14.3046875 40.609375 C12.02262386 37.92110403 9.91926943 35.11826324 7.7890625 32.30859375 C4.62519516 28.87112153 1.65292272 26.82144879 -3.07421875 26.39453125 C-8.03102354 27.02410753 -11.08155118 27.88268364 -14.6953125 31.609375 C-16.5900197 35.3987894 -16.30064997 39.49070634 -15.6953125 43.609375 C-14.16708176 47.0041471 -12.03351599 49.72795251 -9.6953125 52.609375 C-8.90253906 53.60195312 -8.10976563 54.59453125 -7.29296875 55.6171875 C-5.11866781 58.30329071 -2.91975759 60.96475695 -0.6953125 63.609375 C-4.8835579 68.23848834 -9.98910623 69.37527411 -16.08203125 69.90234375 C-29.02633462 70.19621442 -38.40122541 66.72874241 -47.8828125 57.921875 C-56.02881428 49.47119993 -58.02383605 40.51510208 -57.90625 29.14453125 C-57.36223407 20.02722727 -53.16739346 10.94894986 -46.5859375 4.5625 C-32.70889577 -6.63483712 -15.86407095 -9.33180644 0 0 Z " fill="#EDF043" transform="translate(272.6953125,166.390625)"/>
<path d="M0 0 C6.89494796 4.81477722 12.34787035 10.68878192 15.3046875 18.609375 C15.65789062 19.53105469 16.01109375 20.45273437 16.375 21.40234375 C19.07574644 30.71878422 17.98792443 40.27617365 13.859375 48.953125 C11.47612374 53.02501158 8.70496947 56.35330141 5.3046875 59.609375 C4.8096875 60.09019531 4.3146875 60.57101562 3.8046875 61.06640625 C-4.3361219 68.38871036 -12.51924831 69.92338752 -23.15234375 69.82421875 C-30.84620149 69.35766729 -37.66739193 66.42352876 -43.6953125 61.609375 C-44.7127509 60.28930043 -45.71492411 58.95719412 -46.6953125 57.609375 C-45.96940918 57.59479248 -45.24350586 57.58020996 -44.49560547 57.56518555 C-41.18665518 57.49042641 -37.87868298 57.3938571 -34.5703125 57.296875 C-33.42820313 57.27431641 -32.28609375 57.25175781 -31.109375 57.22851562 C-24.40279997 57.01406119 -19.21784701 56.77146412 -14.015625 52.1015625 C-11.01192838 48.03773766 -9.97165889 44.82914471 -10.265625 39.75390625 C-11.18530664 35.16385879 -14.2173684 31.6001888 -17.6953125 28.609375 C-25.07648993 26.06163485 -33.41261901 26.04762077 -41.1328125 25.546875 C-43.44424346 25.3927796 -45.7554576 25.23538577 -48.06640625 25.07421875 C-49.07630615 25.008396 -50.08620605 24.94257324 -51.12670898 24.87475586 C-53.6953125 24.609375 -53.6953125 24.609375 -56.6953125 23.609375 C-55.34289869 15.2449896 -50.3015061 7.27993552 -43.6953125 2.015625 C-30.36422856 -7.42722612 -14.23008641 -8.37063907 0 0 Z " fill="#EDF043" transform="translate(259.6953125,281.390625)"/>
<path d="M0 0 C6.89494796 4.81477722 12.34787035 10.68878192 15.3046875 18.609375 C15.66304688 19.54007813 16.02140625 20.47078125 16.390625 21.4296875 C17.38013586 24.87183211 17.53784513 27.72312756 17.4921875 31.296875 C17.48574219 32.41449219 17.47929687 33.53210938 17.47265625 34.68359375 C17.3046875 37.609375 17.3046875 37.609375 16.3046875 40.609375 C15.6446875 40.609375 14.9846875 40.609375 14.3046875 40.609375 C14.21832031 39.35382813 14.13195312 38.09828125 14.04296875 36.8046875 C13.07135462 24.56846029 11.6166084 14.77867692 2.1953125 6.07421875 C-6.69409608 -0.81323625 -16.7041012 -2.32682331 -27.6953125 -1.390625 C-35.96328841 0.33961153 -42.20720983 5.34281805 -47.6953125 11.609375 C-53.39096756 20.64926789 -54.88365451 28.99592961 -53.234375 39.5625 C-51.6975219 46.03536365 -49.21820751 50.74432245 -44.6953125 55.609375 C-44.18097656 56.16496094 -43.66664063 56.72054687 -43.13671875 57.29296875 C-37.1531286 63.04697271 -29.49861378 65.77337077 -21.2578125 66.046875 C-15.27331525 65.81371277 -9.32616581 64.6620941 -3.6953125 62.609375 C-3.3653125 61.949375 -3.0353125 61.289375 -2.6953125 60.609375 C-2.0353125 61.929375 -1.3753125 63.249375 -0.6953125 64.609375 C-1.94266817 65.2603009 -3.19333082 65.90489169 -4.4453125 66.546875 C-5.14140625 66.90652344 -5.8375 67.26617187 -6.5546875 67.63671875 C-13.98193188 71.0115068 -23.86886781 70.8008553 -31.5703125 68.421875 C-42.61111233 64.01371832 -50.72330592 56.68198562 -55.78515625 45.90625 C-59.08693155 37.57387285 -59.06871646 27.08225154 -55.7265625 18.7578125 C-50.35887971 7.57514001 -43.37634754 0.26177868 -31.6953125 -4.390625 C-21.21784112 -7.74964449 -9.2682548 -5.45191459 0 0 Z " fill="#D8CD46" transform="translate(272.6953125,166.390625)"/>
<path d="M0 0 C6.89494796 4.81477722 12.34787035 10.68878192 15.3046875 18.609375 C15.65789062 19.53105469 16.01109375 20.45273437 16.375 21.40234375 C19.07574644 30.71878422 17.98792443 40.27617365 13.859375 48.953125 C11.47612374 53.02501158 8.70496947 56.35330141 5.3046875 59.609375 C4.8096875 60.09019531 4.3146875 60.57101562 3.8046875 61.06640625 C-4.3361219 68.38871036 -12.51924831 69.92338752 -23.15234375 69.82421875 C-30.9573262 69.35092875 -37.51049951 66.34235395 -43.6953125 61.609375 C-45.6953125 59.296875 -45.6953125 59.296875 -46.6953125 57.609375 C-43.04959211 58.17961949 -40.41375346 59.1510602 -37.2578125 61.046875 C-28.50590379 66.01922379 -20.31395191 67.08116704 -10.5078125 64.421875 C-1.77186744 61.44528516 5.19691633 56.56676382 9.52734375 48.265625 C13.99552919 38.40038404 14.53300432 29.64163391 11.34375 19.1796875 C9.66695874 15.03183542 7.33629708 11.87032621 4.3046875 8.609375 C3.79035156 8.05378906 3.27601563 7.49820312 2.74609375 6.92578125 C-3.82873347 0.60322558 -11.79163371 -1.5982496 -20.7578125 -1.890625 C-31.10647941 -1.51820842 -37.92090019 1.86233561 -45.421875 8.94921875 C-49.17653029 13.34255252 -51.48695452 18.3039296 -53.6953125 23.609375 C-54.6853125 23.609375 -55.6753125 23.609375 -56.6953125 23.609375 C-55.34289869 15.2449896 -50.3015061 7.27993552 -43.6953125 2.015625 C-30.36422856 -7.42722612 -14.23008641 -8.37063907 0 0 Z " fill="#D8CD46" transform="translate(259.6953125,281.390625)"/>
</svg>
